<?xml version="1.0" encoding="utf-8"?>
<!-- Generator: Adobe Illustrator 22.1.0, SVG Export Plug-In . SVG Version: 6.00 Build 0)  -->
<svg xmlns="http://www.w3.org/2000/svg" xmlns:xlink="http://www.w3.org/1999/xlink" version="1.1" id="Capa_1" x="0px" y="0px" viewBox="0 0 1160.2 360" style="enable-background:new 0 0 1160.2 360;" xml:space="preserve">
<style type="text/css">
	.st0{clip-path:url(#SVGID_2_);fill:url(#SVGID_3_);stroke:#575756;stroke-width:0.9257;stroke-miterlimit:10;}
	.st1{fill:#FFFFFF;}
</style>
<g>
	<g>
		<g>
			<g>
				<defs>
					<path id="SVGID_1_" d="M80.2,10c0-5.5,4.5-10,10-10s10,4.5,10,10s-4.5,10-10,10S80.2,15.5,80.2,10z M560.3,66.9L560.3,66.9       c0-6.6-3.2-12.4-8.1-16c-3.3-2.5-7.5-4-12-4c-11.1,0-20,9-20,20l0,0v16.7v0.2V84c-0.1,2.6-1.1,4.9-2.8,6.7       c-1.8,1.9-4.4,3.1-7.2,3.1c-5.5,0-10-4.5-10-10v1.3c0-10.6-8.2-19.2-18.6-19.9c-0.5,0-0.9-0.1-1.4-0.1c-11.1,0-20,9-20,20l0,0       v61.6l0,0v53v20.2c0,33.1-26.8,59.9-59.9,59.9v0.1c-37.3,0-68.7-25.5-77.5-60.1c-1.3-5-2.1-10.1-2.4-15.4v-4.7v-4.5v-120       c0-4.5-0.8-8.8-2.1-12.9c-4.9-14.4-17.8-25.1-33.3-26.9c-0.2,0-0.5-0.1-0.7-0.1c-0.4,0-0.9-0.1-1.3-0.1       c-0.7-0.1-1.5-0.1-2.3-0.1c-0.1,0-0.2,0-0.3,0h-0.1h-0.1c-0.1,0-0.2,0-0.3,0c-0.8,0-1.5,0-2.3,0.1c-0.4,0-0.9,0.1-1.3,0.1       c-0.2,0-0.5,0.1-0.7,0.1c-15.6,1.8-28.5,12.5-33.4,26.9c-1.4,4-2.1,8.3-2.1,12.8v0.1l0,0v123.2c0-1.1,0-2.1-0.1-3.2v4.5v4.7       c-0.3,5.3-1.1,10.5-2.4,15.4c-8.9,34.5-40.2,60.1-77.5,60.1v-0.1c-33.1,0-59.9-26.8-59.9-59.9v-20.2v-53V55.1       c0-1.3-0.2-2.4-0.7-3.6c-1.4-3.8-5.1-6.5-9.3-6.5c-5.5,0-10,4.5-10,10v5.9l-0.1,16.4V115c0,5.5-4.5,10-10,10s-10-4.5-10-10       v-5.3V75.2v-0.4l0,0c-0.2-16.4-13.6-29.7-30-29.7c-14.7,0-26.9,10.6-29.5,24.6C0.2,71.5,0,73.3,0,75.2v124.5v0.1       c0,2.2,0.1,4.3,0.1,6.4c1.1,28.2,9.5,54.6,23.4,77.2c4.8,7.9,10.3,15.3,16.4,22.2c4.5,5.1,9.2,9.8,14.3,14.3       c6.9,6.1,14.4,11.6,22.3,16.5c22.6,13.9,49,22.3,77.2,23.4c2.1,0.1,4.3,0.1,6.4,0.1c2.2,0,4.3-0.1,6.4-0.1       c28.2-1.1,54.5-9.5,77.1-23.3c8-4.9,15.4-10.4,22.4-16.6c5-4.4,9.7-9.1,14.1-14c0-0.1,0.1-0.1,0.1-0.2c4.4,5,9.2,9.8,14.2,14.2       c6.9,6.1,14.4,11.6,22.3,16.5c22.6,13.9,49,22.3,77.2,23.4c2.1,0.1,4.3,0.1,6.4,0.1s4.3-0.1,6.4-0.1       c28.2-1.1,54.5-9.5,77.1-23.3c8-4.9,15.4-10.4,22.4-16.6c5-4.4,9.7-9.1,14.1-14c6.2-7,11.7-14.4,16.6-22.4       c11.6-19,19.5-40.5,22.3-63.7c0.5-4.4,0.9-8.8,1.1-13.3c0-0.1,0-0.2,0-0.3c0.1-2.1,0.1-4.3,0.1-6.5c0-2.3-0.1-4.5-0.2-6.7V66.9       H560.3z M480.3,44.1c11.1,0,20-9,20-20s-9-20-20-20c-11.1,0-20,9-20,20S469.2,44.1,480.3,44.1z"/>
				</defs>
				<clipPath id="SVGID_2_">
					<use xlink:href="#SVGID_1_" style="overflow:visible;"/>
				</clipPath>
				
					<linearGradient id="SVGID_3_" gradientUnits="userSpaceOnUse" x1="-146.1949" y1="361.0312" x2="637.6208" y2="-4.4681" gradientTransform="matrix(1 0 0 -1 0 362)">
					<stop offset="1.014840e-02" style="stop-color:#8A4793"/>
					<stop offset="0.45" style="stop-color:#257EC0"/>
					<stop offset="1" style="stop-color:#40AC5C"/>
				</linearGradient>
				<rect x="-10" y="-13.7" class="st0" width="580.4" height="427"/>
			</g>
		</g>
	</g>
	<g>
		<g>
			<path class="st1" d="M687.7,142c17.8,0,33.1,6.1,46.1,18.4c13,12.3,19.9,27.2,20.9,44.9h0.2v71.2h-31.7v-67.3     c0-9.7-3.5-18.1-10.4-25.1c-7-6.9-15.4-10.4-25.1-10.4c-9.8,0-18.3,3.5-25.3,10.4c-6.9,7-10.4,15.4-10.4,25.1     c0,9.8,3.5,18.3,10.4,25.3c7,6.9,15.5,10.4,25.3,10.4v31.7c-18.6,0-34.5-6.6-47.6-19.8c-13.2-13.1-19.8-28.9-19.8-47.6     c0-18.5,6.6-34.3,19.8-47.4C653.2,148.6,669,142,687.7,142z"/>
			<path class="st1" d="M977.3,142h31.7v67.2c0,18.6-6.5,34.5-19.6,47.6c-13.2,13.2-29,19.8-47.6,19.8c-20.9,0-38-8-51.4-24     c-13.5,16-30.6,24-51.4,24c-18.6,0-34.5-6.6-47.6-19.8c-13.2-13.1-19.8-28.9-19.8-47.6V142h31.7v67.2c0,9.8,3.5,18.3,10.4,25.3     c7,6.9,15.5,10.4,25.3,10.4c9.7,0,18.1-3.5,25.1-10.4c6.9-7,10.4-15.5,10.4-25.3V142h31.7v67.2c0,9.8,3.5,18.3,10.4,25.3     c7,6.9,15.5,10.4,25.3,10.4s18.2-3.5,25.1-10.4c6.9-7,10.4-15.5,10.4-25.3V142H977.3z"/>
			<path class="st1" d="M1093,142c18.5,0,34.3,6.6,47.4,19.8c13.2,13.1,19.8,28.9,19.8,47.4v15.9H1061c6.6,13.2,17.3,19.8,32,19.8     h35.5v31.7H1089v-0.2c-17.6-1-32.6-8-44.9-20.9c-12.3-13-18.4-28.4-18.4-46.2c0-18.5,6.6-34.3,19.8-47.4     C1058.5,148.6,1074.4,142,1093,142z M1124.8,193.4c-6.6-13.2-17.2-19.8-31.8-19.8c-14.7,0-25.4,6.6-32,19.8H1124.8z"/>
		</g>
	</g>
</g>
</svg>
